<svg xmlns="http://www.w3.org/2000/svg" xmlns:xlink="http://www.w3.org/1999/xlink" viewBox="0 0 358.87 243.17"><defs><style>.cls-1{fill:#75d3b4;opacity:0.18;}.cls-2{fill:url(#Degradado_sin_nombre_2);}.cls-3{fill:url(#Degradado_sin_nombre_2-2);}.cls-4{fill:#adcee1;}.cls-5{fill:#88d3d8;}.cls-6{fill:#fff;}.cls-7{fill:#68e1fd;}.cls-8{fill:#193a42;}.cls-9{fill:#053855;opacity:0.1;isolation:isolate;}.cls-10{fill:none;}.cls-11{fill:#f2f2f2;}.cls-12{fill:#f8997c;}.cls-13{fill:#dd654a;}.cls-14{fill:#297600;}.cls-15{fill:#5fad00;}</style><linearGradient id="Degradado_sin_nombre_2" x1="208.56" y1="129.72" x2="190.87" y2="103.67" gradientTransform="matrix(1.01, 0, 0, -1.01, 11.61, 215.65)" gradientUnits="userSpaceOnUse"><stop offset="0" stop-color="#78b46a"/><stop offset="1" stop-color="#fff"/></linearGradient><linearGradient id="Degradado_sin_nombre_2-2" x1="115.88" y1="44.84" x2="93.05" y2="11.21" xlink:href="#Degradado_sin_nombre_2"/></defs><title>about_2</title><g id="Capa_2" data-name="Capa 2"><g id="Capa_1-2" data-name="Capa 1"><path class="cls-1" d="M185.7,240.31,354.78,145.4a8.12,8.12,0,0,0,.3-13.92L191.17,29.92a8.12,8.12,0,0,0-8.31-.12L4,133.61a8.11,8.11,0,0,0,0,14l159.49,92.55A22.41,22.41,0,0,0,185.7,240.31Z"/><path class="cls-2" d="M189.87,104.77c-.21-.18-1.44-1-1.61-1.13l34.15-21,17.52,8.82-36.21,21.81C194,106.7,199.49,111.52,189.87,104.77Z"/><path class="cls-3" d="M53.23,174.71a6.07,6.07,0,0,0-.57-.43l33.15-21.76L182,201,139.6,226.3C129.92,219.8,62.84,181.45,53.23,174.71Z"/><polyline class="cls-4" points="272.47 144.09 272.47 147.56 270.72 149.71"/><path class="cls-5" d="M202.76,101.85l67.78,42a4.21,4.21,0,0,1,1.34,5.79,4.25,4.25,0,0,1-1.49,1.43L167.58,209.22a9.4,9.4,0,0,1-9.39-.08L90.77,169.55c-4.9-4.06-4.54-11.6,0-11.91l102.17-55.83A9.56,9.56,0,0,1,202.76,101.85Z"/><path class="cls-6" d="M202.76,99l67.78,42a4.21,4.21,0,0,1,1.34,5.79,4.25,4.25,0,0,1-1.49,1.43L167.58,206.29a9.38,9.38,0,0,1-9.39-.09L90.77,166.62a5.21,5.21,0,0,1,0-9L192.94,98.84A9.54,9.54,0,0,1,202.76,99Z"/><path class="cls-7" d="M200,93.22S171.89,2.46,172.08,2.46s-.87-4.06-5.91-1.75L58.23,64.24S53,66.36,54,71.23,81.5,160,81.5,160a4.56,4.56,0,0,0,5.08,1.76c3.29-1,110.88-63.51,110.88-63.51A4.13,4.13,0,0,0,200,93.22Z"/><polygon class="cls-8" points="170.26 9.06 59.75 73.49 82.67 150.45 194.61 87.94 170.26 9.06"/><path class="cls-7" d="M206.93,108.58,231.69,124a3,3,0,0,1,1,4.11,3,3,0,0,1-1.07,1l-88.87,50.63a8.7,8.7,0,0,1-8.74,0c-5.72-3.33-15.55-9.32-21.57-13a3.63,3.63,0,0,1,.07-6.24c18-10.46,76.61-44.56,89.45-52A4.87,4.87,0,0,1,206.93,108.58Z"/><path class="cls-7" d="M205.58,150.45l-31.05,17.46a3.1,3.1,0,0,0-1.14,4.24,3,3,0,0,0,1.14,1.14L192.8,184a4.15,4.15,0,0,0,4.12,0l31.77-18.12a2.6,2.6,0,0,0,0-4.51l-19.05-10.88A4.11,4.11,0,0,0,205.58,150.45Z"/><path class="cls-9" d="M206.93,108.58,231.69,124a3,3,0,0,1,1,4.11,3,3,0,0,1-1.07,1l-88.87,50.63a8.7,8.7,0,0,1-8.74,0c-5.72-3.33-15.55-9.32-21.57-13a3.63,3.63,0,0,1,.07-6.24c18-10.46,76.61-44.56,89.45-52A4.87,4.87,0,0,1,206.93,108.58Z"/><path class="cls-9" d="M205.58,150.45l-31.05,17.46a3.1,3.1,0,0,0-1.14,4.24,3,3,0,0,0,1.14,1.14L192.8,184a4.15,4.15,0,0,0,4.12,0l31.77-18.12a2.6,2.6,0,0,0,0-4.51l-19.05-10.88A4.11,4.11,0,0,0,205.58,150.45Z"/><line class="cls-10" x1="120.27" y1="101.53" x2="147.18" y2="86.12"/><path class="cls-11" d="M121.05,102.84,148,87.42a1.52,1.52,0,0,0-1.53-2.63L119.5,100.21a1.52,1.52,0,0,0-.47,2.1,1.54,1.54,0,0,0,2,.53Z"/><polyline class="cls-12" points="218.15 74.91 218.15 88.85 240.69 88.85 240.69 74.91"/><ellipse class="cls-13" cx="229.42" cy="74.91" rx="11.28" ry="5.54"/><ellipse class="cls-12" cx="229.42" cy="89.39" rx="11.28" ry="5.54"/><path class="cls-14" d="M242,42.52c-2.37-1-5.67-4.22-8.55-4.12A33.93,33.93,0,0,0,231.74,47a78.31,78.31,0,0,0-.32,14.28c.06,1.06.15,2.12.26,3.18a2.75,2.75,0,0,0,.25.89v11a.37.37,0,0,0,.41.29.39.39,0,0,0,.3-.29V65.74a15.42,15.42,0,0,0,3.22-1.49,11,11,0,0,0,4.54-5.71c1.82-5.07.67-10.72,2.4-15.73Z"/><path class="cls-15" d="M237.17,34.21A8.85,8.85,0,0,0,234,37.5a4.86,4.86,0,0,0-.51,1l-.1.21h0a13.12,13.12,0,0,0-.54,1.75,2.18,2.18,0,0,1,1.2-.95,2.94,2.94,0,0,1,1.87-.17,7.56,7.56,0,0,1,1.73.92c.8.49,1.57,1,2.37,1.54,3.74,2.37,8.71,2.61,11.6-.85a2.22,2.22,0,0,1,.1-.41C252.09,38.16,245.43,29.41,237.17,34.21Z"/><path class="cls-14" d="M249.92,42.41l.47-.3a.3.3,0,0,0-.09-.26c-2.26-2.32-4.68-4.59-7.77-5.74a13.31,13.31,0,0,0-6.93-.68c-.25.3-.48.6-.7.9a12.11,12.11,0,0,1,8,.66,22.48,22.48,0,0,1,6.94,5.34A.25.25,0,0,0,249.92,42.41Z"/><path class="cls-14" d="M212.08,47.46a9.39,9.39,0,0,0-5.07,9c.26,6.65,11.22.16,14.14-5.45s3.37,2.4,3.37,2.4"/><path class="cls-15" d="M221.94,45.13a19.92,19.92,0,0,0-6.09.85,14.36,14.36,0,0,0-3.79,1.48,12.78,12.78,0,0,0,2.19,1.17,6.63,6.63,0,0,1,3.55,2.53,5.62,5.62,0,0,1,.42,1c.67,2.19.09,4.84,1,7a6.45,6.45,0,0,0,5.33,4.31c3,.19,4.5-2.79,5.07-5.35s1.44-6.09.47-8.71C229,46.38,224.86,45.28,221.94,45.13Z"/><path class="cls-14" d="M226,55.52c-1.3-4.2-4.06-8.12-8.07-10h-.18l-.2.06-.73.19c4.68,1.74,7.62,6.36,8.83,11.08,1.53,6,1,12.57,1,18.74a.32.32,0,0,0,.32.33.33.33,0,0,0,.33-.33C227.37,69,228,61.9,226,55.52Z"/><path class="cls-11" d="M111.4,97.87l26.91-15.41a1.52,1.52,0,0,0-1.54-2.63L109.86,95.24a1.52,1.52,0,0,0,1.53,2.63Z"/><path class="cls-11" d="M117.4,83.94l26.91-15.42a1.52,1.52,0,0,0-1.54-2.63L115.86,81.31a1.52,1.52,0,0,0-.48,2.1,1.54,1.54,0,0,0,2,.53Z"/><path class="cls-11" d="M102.47,83.94l26.9-15.42a1.52,1.52,0,0,0-1.53-2.63L100.92,81.31a1.52,1.52,0,0,0-.47,2.1,1.54,1.54,0,0,0,2,.53Z"/></g></g></svg>