<svg width="33" height="34" viewBox="0 0 33 34" fill="none" xmlns="http://www.w3.org/2000/svg">
<g clip-path="url(#clip0)">
<path d="M28.4803 10.6735C28.2133 10.6735 27.9969 10.8954 27.9969 11.1691V32.1694C27.9969 32.6322 27.6297 33.0088 27.1782 33.0088H5.82265C5.37116 33.0088 5.00391 32.6322 5.00391 32.1694V27.2551C5.00391 26.9814 4.78754 26.7595 4.52051 26.7595C4.25348 26.7595 4.03711 26.9814 4.03711 27.2551V32.1694C4.03711 33.1788 4.83813 34 5.82265 34H27.1782C28.1627 34 28.9637 33.1788 28.9637 32.1694V11.1691C28.9637 10.8954 28.7473 10.6735 28.4803 10.6735Z" fill="white"/>
<path d="M27.1782 0.166687H5.82265C4.83813 0.166687 4.03711 0.987938 4.03711 1.99732V24.9355C4.03711 25.2092 4.25348 25.4311 4.52051 25.4311C4.78754 25.4311 5.00391 25.2092 5.00391 24.9355V5.29653H27.9969V8.85386C27.9969 9.12756 28.2133 9.34946 28.4803 9.34946C28.7473 9.34946 28.9637 9.12756 28.9637 8.85386V1.99732C28.9637 0.987938 28.1627 0.166687 27.1782 0.166687V0.166687ZM5.00391 4.30532V1.99732C5.00391 1.53449 5.37116 1.1579 5.82265 1.1579H27.1782C27.6297 1.1579 27.9969 1.53449 27.9969 1.99732V4.30532H5.00391Z" fill="white"/>
<path d="M16.5001 6.44135C13.0743 6.44135 10.2871 9.29881 10.2871 12.8112C10.2871 16.3236 13.0742 19.1811 16.5001 19.1811C19.926 19.1811 22.713 16.3236 22.713 12.8112C22.713 9.29881 19.9259 6.44135 16.5001 6.44135ZM12.9524 16.7693C13.6426 15.4262 15.0014 14.5751 16.5001 14.5751C17.9987 14.5751 19.3575 15.4262 20.0477 16.7693C19.1131 17.6506 17.867 18.1899 16.5001 18.1899C15.1332 18.1899 13.8871 17.6506 12.9524 16.7693ZM14.5419 11.5763C14.5419 10.4693 15.4204 9.56869 16.5001 9.56869C17.5798 9.56869 18.4582 10.4693 18.4582 11.5763C18.4582 12.6833 17.5798 13.5839 16.5001 13.5839C15.4204 13.5839 14.5419 12.6833 14.5419 11.5763ZM20.7271 15.992C20.1542 15.0463 19.3013 14.328 18.3075 13.9313C18.9873 13.3817 19.425 12.5307 19.425 11.5762C19.425 9.92268 18.113 8.57741 16.5001 8.57741C14.8872 8.57741 13.5751 9.92268 13.5751 11.5762C13.5751 12.5307 14.0128 13.3817 14.6927 13.9313C13.6989 14.328 12.846 15.0463 12.2731 15.992C11.6332 15.1004 11.254 14.0005 11.254 12.8111C11.254 9.84537 13.6074 7.43249 16.5001 7.43249C19.3929 7.43249 21.7463 9.84537 21.7463 12.8111C21.7462 14.0005 21.3671 15.1004 20.7271 15.992Z" fill="white"/>
<path d="M25.0949 20.3259H14.1567C13.8897 20.3259 13.6733 20.5478 13.6733 20.8215C13.6733 21.0952 13.8897 21.3171 14.1567 21.3171H25.0949C25.362 21.3171 25.5783 21.0952 25.5783 20.8215C25.5783 20.5478 25.3619 20.3259 25.0949 20.3259Z" fill="white"/>
<path d="M7.42285 20.8215V22.9575C7.42285 23.2312 7.63922 23.4531 7.90625 23.4531H11.8127C12.0798 23.4531 12.2961 23.2312 12.2961 22.9575V20.8215C12.2961 20.5478 12.0798 20.3259 11.8127 20.3259H7.90625C7.63928 20.3259 7.42285 20.5478 7.42285 20.8215ZM8.38965 21.3171H11.3293V22.4619H8.38965V21.3171Z" fill="white"/>
<path d="M14.1567 23.4532H21.1884C21.4555 23.4532 21.6718 23.2313 21.6718 22.9576C21.6718 22.6839 21.4555 22.462 21.1884 22.462H14.1567C13.8897 22.462 13.6733 22.6839 13.6733 22.9576C13.6733 23.2313 13.8897 23.4532 14.1567 23.4532Z" fill="white"/>
<path d="M25.0949 24.5981H14.1567C13.8897 24.5981 13.6733 24.82 13.6733 25.0937C13.6733 25.3674 13.8897 25.5893 14.1567 25.5893H25.0949C25.362 25.5893 25.5783 25.3674 25.5783 25.0937C25.5783 24.82 25.3619 24.5981 25.0949 24.5981Z" fill="white"/>
<path d="M7.42285 27.2297C7.42285 27.5035 7.63922 27.7254 7.90625 27.7254H11.8127C12.0798 27.7254 12.2961 27.5035 12.2961 27.2297V25.0937C12.2961 24.82 12.0798 24.5981 11.8127 24.5981H7.90625C7.63922 24.5981 7.42285 24.82 7.42285 25.0937V27.2297ZM8.38965 25.5893H11.3293V26.7341H8.38965V25.5893Z" fill="white"/>
<path d="M14.1567 27.7253H21.1884C21.4555 27.7253 21.6718 27.5034 21.6718 27.2297C21.6718 26.956 21.4555 26.7341 21.1884 26.7341H14.1567C13.8897 26.7341 13.6733 26.956 13.6733 27.2297C13.6733 27.5034 13.8897 27.7253 14.1567 27.7253Z" fill="white"/>
<path d="M25.5783 29.3658C25.5783 29.0921 25.362 28.8702 25.0949 28.8702H14.1567C13.8897 28.8702 13.6733 29.0921 13.6733 29.3658C13.6733 29.6395 13.8897 29.8614 14.1567 29.8614H25.0949C25.3619 29.8614 25.5783 29.6395 25.5783 29.3658Z" fill="white"/>
<path d="M7.42285 31.5018C7.42285 31.7756 7.63922 31.9974 7.90625 31.9974H11.8127C12.0798 31.9974 12.2961 31.7756 12.2961 31.5018V29.3658C12.2961 29.0921 12.0798 28.8702 11.8127 28.8702H7.90625C7.63922 28.8702 7.42285 29.0921 7.42285 29.3658V31.5018ZM8.38965 29.8614H11.3293V31.0062H8.38965V29.8614Z" fill="white"/>
<path d="M14.1567 31.0062C13.8897 31.0062 13.6733 31.2281 13.6733 31.5018C13.6733 31.7755 13.8897 31.9974 14.1567 31.9974H21.1884C21.4555 31.9974 21.6718 31.7755 21.6718 31.5018C21.6718 31.2281 21.4555 31.0062 21.1884 31.0062H14.1567Z" fill="white"/>
<path d="M25.6156 3.26563C25.9032 3.26563 26.1364 3.02655 26.1364 2.73163C26.1364 2.43671 25.9032 2.19763 25.6156 2.19763C25.3279 2.19763 25.0947 2.43671 25.0947 2.73163C25.0947 3.02655 25.3279 3.26563 25.6156 3.26563Z" fill="white"/>
<path d="M23.5326 2.19763C23.245 2.19763 23.0117 2.43671 23.0117 2.73163C23.0117 3.02655 23.2449 3.26563 23.5326 3.26563C23.8203 3.26563 24.0535 3.02655 24.0535 2.73163C24.0535 2.43671 23.8203 2.19763 23.5326 2.19763Z" fill="white"/>
<path d="M21.4486 2.19763C21.161 2.19763 20.9277 2.43671 20.9277 2.73163C20.9277 3.02655 21.1609 3.26563 21.4486 3.26563C21.7363 3.26563 21.9695 3.02655 21.9695 2.73163C21.9696 2.43671 21.7364 2.19763 21.4486 2.19763Z" fill="white"/>
</g>
<defs>
<clipPath id="clip0">
<rect width="33" height="33.8333" fill="white" transform="translate(0 0.166687)"/>
</clipPath>
</defs>
</svg>
