<svg width="77" height="21" viewBox="0 0 77 21" fill="none" xmlns="http://www.w3.org/2000/svg">
<path d="M2.35061 2.0116C1.92238 2.0116 1.56708 2.38597 1.56708 2.83718V18.5232C1.56708 18.9744 1.92238 19.3488 2.35061 19.3488H17.2377C17.6659 19.3488 18.0212 18.9744 18.0212 18.5232V2.83718C18.0212 2.38597 17.6659 2.0116 17.2377 2.0116H2.35061ZM2.35061 2.83718H17.2377V18.5232H2.35061V2.83718ZM7.28134 6.1395C6.7172 6.1395 6.26589 6.20556 5.87726 6.31123L5.87649 15.2209H6.84213V11.4356C6.98004 11.4484 7.10536 11.4485 7.26833 11.4485C8.02052 11.4485 8.81028 11.119 9.26159 10.4585C9.58793 10.0094 9.77502 9.45457 9.77502 8.6356C9.77502 7.85666 9.56213 7.2088 9.16135 6.7861C8.72258 6.33699 8.05821 6.1395 7.28134 6.1395ZM7.43437 6.81674C8.51212 6.81674 8.86294 7.63466 8.86294 8.54611C8.86294 9.80099 8.22348 10.4617 7.28364 10.4617C7.12066 10.4617 7.00776 10.4487 6.89493 10.4359V6.88285C7.0203 6.84281 7.20872 6.81674 7.43437 6.81674ZM12.4256 8.61625C11.4497 8.61625 10.6955 9.34633 10.6955 10.394C10.6955 11.1234 11.1369 11.6805 11.9565 12.2241C12.5935 12.6485 12.7622 12.9935 12.7622 13.4843C12.7622 14.0543 12.3989 14.4122 11.8394 14.4122C11.4359 14.4122 11.0458 14.2266 10.8248 14.0809L10.5777 14.8492C10.8507 15.0746 11.3582 15.2209 11.8134 15.2209C12.8539 15.2209 13.7118 14.5976 13.7118 13.3109C13.7118 12.4226 13.1401 11.8254 12.4125 11.3478C11.7881 10.9238 11.6321 10.6716 11.6321 10.2473C11.6321 9.82332 11.9046 9.4257 12.4378 9.4257C12.7759 9.4257 13.0365 9.54501 13.2833 9.71756L13.5435 8.94761C13.2833 8.77548 12.92 8.61625 12.4256 8.61625Z" fill="white"/>
<path d="M33.3127 2.0116C32.8845 2.0116 32.5292 2.38597 32.5292 2.83718V18.5232C32.5292 18.9744 32.8845 19.3488 33.3127 19.3488H48.1998C48.628 19.3488 48.9833 18.9744 48.9833 18.5232V2.83718C48.9833 2.38597 48.628 2.0116 48.1998 2.0116H33.3127ZM33.3127 2.83718H48.1998V18.5232H33.3127V2.83718ZM38.7691 6.1395L36.8386 15.2209H37.7782L38.3368 12.5652H40.2176L40.7624 15.2209H41.715L39.835 6.1395H38.7691ZM43.7863 6.1395C43.4635 6.1395 43.2048 6.3977 43.2048 6.78449C43.2048 7.17127 43.4505 7.42947 43.7733 7.42947H43.7863C44.1479 7.42947 44.3801 7.17127 44.3801 6.78449C44.3801 6.3977 44.1479 6.1395 43.7863 6.1395ZM39.2779 7.14649H39.3154C39.4157 7.80695 39.529 8.54656 39.6544 9.18061L40.099 11.5066L38.4952 11.5058L38.9267 9.19432C39.0521 8.58628 39.1773 7.82016 39.2779 7.14649ZM43.3027 8.20346V15.2209H44.2821V8.20346H43.3027Z" fill="white"/>
<g clip-path="url(#clip0)">
<path d="M72.3909 7.24166C73.2463 7.24166 74.0666 6.87917 74.6714 6.23394C75.2762 5.5887 75.616 4.71357 75.616 3.80107C75.616 2.88857 75.2762 2.01344 74.6714 1.3682C74.0666 0.722964 73.2463 0.360474 72.3909 0.360474L65.9409 0.360474C65.086 0.360474 64.2662 0.722751 63.6618 1.36761C63.0573 2.01247 62.7177 2.88708 62.7177 3.79905C62.7177 4.71102 63.0573 5.58564 63.6618 6.23049C64.2662 6.87535 65.086 7.23763 65.9409 7.23763C65.0855 7.23763 64.2652 7.60012 63.6604 8.24536C63.0556 8.89059 62.7158 9.76572 62.7158 10.6782C62.7158 11.5907 63.0556 12.4659 63.6604 13.1111C64.2652 13.7563 65.0855 14.1188 65.9409 14.1188C65.303 14.1184 64.6794 14.3198 64.1488 14.6975C63.6183 15.0753 63.2046 15.6124 62.9602 16.2409C62.7157 16.8694 62.6515 17.5612 62.7755 18.2287C62.8996 18.8962 63.2064 19.5094 63.6572 19.9909C64.108 20.4723 64.6824 20.8004 65.308 20.9335C65.9335 21.0667 66.582 20.9989 67.1714 20.7389C67.7608 20.4788 68.2648 20.0382 68.6194 19.4726C68.9741 18.907 69.1636 18.2419 69.164 17.5614V7.24166H72.3909ZM72.3909 7.24166C71.7535 7.24166 71.1303 7.44333 70.6003 7.82117C70.0702 8.199 69.6571 8.73604 69.4131 9.36435C69.1692 9.99267 69.1054 10.6841 69.2297 11.3511C69.3541 12.0181 69.6611 12.6308 70.1118 13.1117C70.5626 13.5926 71.1369 13.9201 71.7621 14.0527C72.3874 14.1854 73.0354 14.1173 73.6244 13.8571C74.2133 13.5968 74.7167 13.1561 75.0709 12.5906C75.425 12.0251 75.6141 11.3603 75.6141 10.6802C75.614 9.76831 75.2744 8.89375 74.6699 8.24892C74.0655 7.60408 73.2457 7.24177 72.3909 7.24166Z" fill="white"/>
</g>
<defs>
<clipPath id="clip0">
<rect width="14.5098" height="20.6395" fill="white" transform="translate(61.9242 0.360474)"/>
</clipPath>
</defs>
</svg>
