<svg width="107" height="22" viewBox="0 0 107 22" fill="none" xmlns="http://www.w3.org/2000/svg">
<path d="M29.6967 2.44177C29.5928 2.44178 29.4932 2.48528 29.4197 2.56269C29.3462 2.6401 29.3049 2.74509 29.3049 2.85456V19.3662C29.3049 19.4757 29.3462 19.5807 29.4197 19.6581C29.4932 19.7355 29.5928 19.779 29.6967 19.779H45.3673C45.4712 19.779 45.5708 19.7355 45.6443 19.6581C45.7178 19.5807 45.7591 19.4757 45.7591 19.3662V2.85456C45.7591 2.74509 45.7178 2.6401 45.6443 2.56269C45.5708 2.48528 45.4712 2.44178 45.3673 2.44177H29.6967ZM30.0885 3.26735H44.9755V18.9534H30.0885V3.26735ZM33.6143 10.2848V11.707H35.5732V18.1278H37.1402V11.707H39.0991V10.2848H33.6143ZM42.1123 10.2888C40.8921 10.2837 39.4977 10.6733 39.4977 12.4826C39.4977 14.8479 42.5224 14.8485 42.5224 15.9155C42.5224 16.0167 42.5631 16.7516 41.4956 16.7516C40.428 16.7516 39.5383 16.0445 39.5383 16.0445V17.761C39.5383 17.761 44.1928 19.3472 44.1928 15.7704C44.1924 13.4485 41.1398 13.5646 41.1398 12.4108C41.1398 11.9638 41.4412 11.5457 42.276 11.5457C43.1109 11.5457 43.85 12.065 43.85 12.065L43.9051 10.5355C43.9051 10.5355 43.0613 10.2928 42.1123 10.2888Z" fill="white"/>
<g clip-path="url(#clip0)">
<path d="M69.6463 4.09299C69.4627 4.08816 69.302 4.16233 69.2193 4.37679C69.0785 4.73637 69.429 5.08788 69.5545 5.2717C69.6417 5.39909 69.7549 5.5426 69.8177 5.68611C69.859 5.78124 69.8651 5.87638 69.9003 5.97635C69.9876 6.22306 70.1268 6.50363 70.2385 6.7326C70.2952 6.84869 70.3579 6.96963 70.4298 7.07283C70.4742 7.13571 70.5492 7.16474 70.5614 7.26149C70.488 7.37113 70.4834 7.54044 70.4421 7.67911C70.2554 8.29991 70.3258 9.07228 70.5966 9.53022C70.6808 9.67212 70.8782 9.97365 71.1475 9.85916C71.3832 9.75758 71.3312 9.44315 71.3985 9.16419C71.4138 9.10292 71.4046 9.05616 71.4352 9.01423V9.02713C71.5056 9.1787 71.5776 9.33028 71.6495 9.48024C71.8102 9.75113 72.0933 10.0333 72.332 10.2252C72.456 10.3236 72.5539 10.4945 72.7146 10.5525V10.5396H72.7024C72.6718 10.488 72.6228 10.4671 72.583 10.4268C72.4896 10.33 72.3856 10.2091 72.3091 10.0978C72.0902 9.7866 71.8974 9.44476 71.723 9.09002C71.6388 8.92071 71.5653 8.73366 71.4949 8.56113C71.4674 8.49341 71.4674 8.39344 71.4108 8.35796C71.3327 8.48535 71.2195 8.58693 71.1598 8.73689C71.0649 8.97553 71.0511 9.26739 71.0159 9.56892C70.9945 9.57698 71.0037 9.57053 70.993 9.58182C70.8262 9.53828 70.7665 9.35769 70.7053 9.20289C70.5492 8.81106 70.5186 8.17898 70.6578 7.7291C70.693 7.61139 70.8537 7.24375 70.7894 7.13571C70.7588 7.02768 70.6548 6.9664 70.5982 6.88417C70.5262 6.78258 70.4558 6.64875 70.4069 6.53104C70.2783 6.22467 70.1574 5.86993 70.0212 5.56034C69.9569 5.41199 69.8483 5.26364 69.758 5.13142C69.6585 4.9863 69.5483 4.87988 69.4703 4.70251C69.4443 4.64123 69.406 4.54126 69.4473 4.47676C69.4596 4.43322 69.478 4.41549 69.5193 4.40097C69.5881 4.34454 69.781 4.41871 69.8544 4.45096C70.0457 4.53481 70.2064 4.61543 70.3686 4.7283C70.4467 4.78313 70.5247 4.88794 70.6196 4.91858H70.7267C70.8966 4.95889 71.0848 4.92986 71.2409 4.98146C71.5194 5.07015 71.7689 5.20882 71.9938 5.35878C72.684 5.81672 73.2487 6.46977 73.6328 7.24859C73.6956 7.37436 73.7231 7.49529 73.7782 7.62751C73.8868 7.89518 74.0261 8.17253 74.1363 8.43375C74.2449 8.69658 74.3521 8.95941 74.5066 9.17709C74.5877 9.29158 74.903 9.35446 75.0453 9.41735C75.1448 9.4625 75.3101 9.50926 75.4034 9.56892C75.5855 9.68341 75.76 9.82047 75.9298 9.94785C76.0155 10.0107 76.2757 10.1478 76.2895 10.2623C75.8686 10.251 75.5473 10.2913 75.2733 10.4139C75.1953 10.4493 75.0698 10.4493 75.0575 10.5525C75.0989 10.5993 75.1065 10.6702 75.1402 10.7283C75.206 10.8395 75.3162 10.9895 75.4156 11.0685C75.5243 11.154 75.6345 11.2459 75.7508 11.3217C75.9559 11.4523 76.1854 11.5281 76.3843 11.6603C76.5007 11.7393 76.6185 11.8377 76.7317 11.9247C76.7884 11.9699 76.8251 12.0376 76.8985 12.065V12.0521C76.8603 12.0005 76.8511 11.9296 76.8159 11.8764L76.6583 11.7103C76.5068 11.499 76.314 11.312 76.1089 11.1572C75.9451 11.033 75.5794 10.8653 75.5121 10.6654L75.4998 10.6525C75.6146 10.6396 75.7508 10.5944 75.8579 10.5638C76.0385 10.5138 76.1976 10.5267 76.3828 10.4767C76.467 10.4509 76.5512 10.4251 76.6353 10.401V10.3494C76.542 10.2494 76.4746 10.1139 76.3721 10.022C76.1043 9.78177 75.812 9.54151 75.5105 9.34156C75.3437 9.2303 75.1371 9.15774 74.9611 9.06422C74.9015 9.03197 74.7974 9.01585 74.7576 8.96263C74.6643 8.83847 74.6138 8.68045 74.5418 8.53533C74.3919 8.23058 74.2449 7.89841 74.1118 7.57753C74.0215 7.35985 73.9618 7.14378 73.8486 6.94706C73.3053 6.00699 72.7207 5.43779 71.8148 4.87988C71.622 4.76055 71.3909 4.71541 71.146 4.65413C71.0129 4.64446 70.8828 4.63639 70.7497 4.62833C70.6701 4.59286 70.5859 4.48966 70.5109 4.43806C70.3227 4.3139 69.9524 4.09783 69.6463 4.09299ZM70.9425 5.46036C70.8553 5.45875 70.7925 5.47165 70.7267 5.48616V5.49906H70.7389C70.7803 5.58936 70.8553 5.64741 70.9073 5.72481C70.9471 5.81349 70.9853 5.90218 71.0251 5.99086L71.0374 5.97796C71.1108 5.92314 71.146 5.83445 71.146 5.70062C71.1154 5.66837 71.1108 5.62645 71.0863 5.58775C71.0511 5.53454 70.9853 5.50551 70.9425 5.46036ZM58.1673 10.696C58.0494 10.7009 57.9209 10.7251 57.7816 10.7718C57.549 10.846 57.4342 10.9927 57.4342 11.291V14.4128H58.2193V11.3668L59.3074 13.9709C59.442 14.2951 59.6257 14.4111 59.9853 14.4111C60.3465 14.4111 60.5224 14.2951 60.6571 13.9709L61.7452 11.4329V14.4128H62.5287V11.291C62.5287 10.9927 62.4155 10.846 62.1813 10.7718C61.6243 10.5864 61.2494 10.746 61.081 11.1475L59.9639 13.7952L58.8835 11.1475C58.761 10.846 58.5162 10.6815 58.1673 10.696ZM67.7181 10.6976C67.4089 10.6976 66.4464 10.7363 66.4464 11.5232V12.0328C66.4464 12.394 66.7478 12.689 67.4013 12.7616C67.4747 12.7664 67.5482 12.7729 67.6217 12.7729C67.6217 12.7729 68.3838 12.7568 68.4052 12.7616C68.8459 12.7616 68.797 13.1228 68.797 13.1744V13.5872C68.797 13.6436 68.7847 14 68.4006 14H66.4464V14.4128H68.4083C68.6653 14.4128 68.9148 14.3563 69.1137 14.258C69.4443 14.0983 69.5805 13.8823 69.5805 13.5985V13.0083C69.5805 12.3746 68.8337 12.3488 68.4052 12.3488H67.6217C67.3141 12.3488 67.2666 12.1521 67.2299 11.936V11.5232C67.2666 11.3588 67.3355 11.1362 67.6079 11.1104H69.5805V10.6976H67.7181ZM70.7481 10.6976C70.1697 10.7815 69.9661 11.0846 69.9661 11.5232V13.5872C69.9661 13.9887 70.1788 14.2306 70.6165 14.3563C70.7634 14.3999 70.8966 14.4176 71.0221 14.4176L71.8944 14.4128H72.407L72.8432 14.8256H73.7246L73.1186 14.2499C73.4033 14.1257 73.492 13.9355 73.492 13.5791V11.5232C73.492 11.0846 73.2211 10.7815 72.6427 10.6976H70.7481ZM73.8899 10.6976V13.5694C73.8899 14.0677 74.1577 14.3483 74.8663 14.4047C74.9321 14.4079 74.9994 14.4128 75.0652 14.4128H77.024V14H75.2136C74.8096 14 74.6734 13.821 74.6734 13.5662V10.6976H73.8899ZM71.2149 11.1104H72.2234C72.4896 11.1104 72.6687 11.3362 72.7085 11.5232C72.7085 11.5232 72.7146 13.4453 72.7146 13.5872C72.7146 13.7291 72.6396 13.7936 72.6396 13.7936L72.4269 13.5872H71.5393L71.9755 14H71.2149C70.9425 14 70.7894 13.7871 70.7497 13.5872V11.5652C70.7497 11.3459 70.9088 11.1104 71.2149 11.1104ZM62.9205 11.936C62.9358 11.9521 62.9205 13.6952 62.9205 13.7291C62.9266 14.0903 63.3612 14.4063 64.0422 14.4128H65.2711V14.4402C65.2711 14.5176 65.3246 14.7756 64.8793 14.8256C64.8747 14.8256 62.9251 14.8256 62.9205 14.8256V15.2383H64.9635C65.3093 15.2271 66.0592 15.1448 66.0546 14.5127C66.0546 14.5014 66.0577 11.936 66.0546 11.936H65.2711V14C65.2588 14 64.3008 14.0032 64.108 14C63.73 13.9935 63.6979 13.7662 63.704 13.6791V11.936H62.9205Z" fill="white"/>
</g>
<path d="M96.9287 3.80059C98.9283 3.80059 100.805 4.23058 102.03 4.57457C102.519 4.70357 102.846 5.13356 102.928 5.69255C103.009 6.50953 103.05 7.36951 103.05 8.22949C103.05 14.9373 98.357 17.6463 96.9287 18.2913C95.5003 17.6033 90.8073 14.8943 90.8073 8.22949C90.8073 7.36951 90.8481 6.50953 90.9297 5.69255C90.9706 5.13356 91.3378 4.70357 91.8275 4.57457C93.0518 4.23058 94.929 3.80059 96.9287 3.80059ZM96.9287 2.51062C94.8066 2.51062 92.807 2.94061 91.5011 3.3276C90.5625 3.5856 89.8279 4.48858 89.7463 5.52055C89.6647 6.25154 89.5831 7.19751 89.5831 8.22949C89.5831 17.0443 96.9287 19.7102 96.9287 19.7102C96.9287 19.7102 104.274 17.0443 104.274 8.22949C104.274 7.15452 104.193 6.25154 104.111 5.52055C103.989 4.44558 103.295 3.5856 102.315 3.3276C101.05 2.94061 99.0507 2.51062 96.9287 2.51062Z" fill="white"/>
<path d="M96.5206 12.8303H97.3367V16.2702H96.5206V12.8303Z" fill="#DEDEDE"/>
<path d="M96.9286 5.09058C96.9286 5.09058 94.4801 7.24053 94.4801 10.6805C94.4801 12.9164 95.8268 14.3354 96.5206 14.9804L96.9286 13.6904L97.3367 14.9804C98.0305 14.3354 99.3772 12.9164 99.3772 10.6805C99.3772 7.24053 96.9286 5.09058 96.9286 5.09058Z" fill="white"/>
<path d="M96.9286 5.09058C96.9286 5.09058 94.4801 7.24053 94.4801 10.6805C94.4801 12.9164 95.8268 14.3354 96.5206 14.9804L96.9286 13.6904V5.09058Z" fill="#DEDEDE"/>
<g clip-path="url(#clip1)">
<path d="M9.24187 21.2689C8.9824 21.2689 8.71906 21.1963 8.49057 21.0593L6.10113 19.5879C5.74484 19.3783 5.91911 19.3057 6.03529 19.2654C6.51163 19.0921 6.60845 19.0558 7.11577 18.7534C7.16999 18.7212 7.23969 18.7333 7.29391 18.7696L9.12956 19.9023C9.1954 19.9426 9.28834 19.9426 9.3503 19.9023L16.5031 15.6051C16.569 15.5648 16.6116 15.4842 16.6116 15.4036V6.80912C16.6116 6.72446 16.569 6.64787 16.4993 6.60353L9.3503 2.31034C9.28447 2.27003 9.1954 2.27003 9.12956 2.31034L1.98447 6.60756C1.91476 6.64787 1.87216 6.72849 1.87216 6.81315V15.4036C1.87216 15.4842 1.91476 15.5648 1.98447 15.6011L3.94404 16.7782C5.00903 17.3304 5.65964 16.6814 5.65964 16.0244V7.54279C5.65964 7.42185 5.75259 7.32914 5.86877 7.32914H6.77497C6.88728 7.32914 6.9841 7.42185 6.9841 7.54279V16.0284C6.9841 17.5038 6.20956 18.3503 4.86574 18.3503C4.45137 18.3503 4.12606 18.3503 3.21985 17.8827L1.34548 16.758C0.880755 16.4799 0.594177 15.9599 0.594177 15.3995V6.80912C0.594177 6.25282 0.880755 5.72877 1.34548 5.45062L8.49057 1.1534C8.94367 0.887343 9.54394 0.887343 9.99317 1.1534L17.146 5.45465C17.6107 5.7328 17.8973 6.25282 17.8973 6.81315V15.4036C17.8973 15.9599 17.6107 16.4799 17.146 16.7621L9.99317 21.0593C9.76468 21.1963 9.50521 21.2689 9.24187 21.2689ZM15.016 12.7994C15.016 11.191 13.9704 10.7637 11.7746 10.4613C9.55168 10.155 9.32707 9.99777 9.32707 9.45759C9.32707 9.01013 9.51683 8.41352 11.1627 8.41352C12.6305 8.41352 13.1726 8.74407 13.3973 9.77605C13.4166 9.8728 13.5018 9.94536 13.5986 9.94536H14.5281C14.5862 9.94536 14.6404 9.92117 14.6791 9.87683C14.7178 9.83249 14.7372 9.77202 14.7333 9.71155C14.59 7.93381 13.4553 7.10742 11.1627 7.10742C9.12182 7.10742 7.9058 8.00234 7.9058 9.50596C7.9058 11.1346 9.11794 11.586 11.0736 11.7876C13.4166 12.0254 13.5986 12.3842 13.5986 12.8639C13.5986 13.6943 12.9558 14.0491 11.4493 14.0491C9.55556 14.0491 9.14118 13.5532 9.00176 12.5737C8.98627 12.4689 8.90107 12.3923 8.79651 12.3923H7.87094C7.75476 12.3923 7.66569 12.489 7.66569 12.6059C7.66569 13.8596 8.32017 15.3552 11.4532 15.3552C13.7148 15.3511 15.016 14.4199 15.016 12.7994Z" fill="white"/>
</g>
<defs>
<clipPath id="clip0">
<rect width="19.5883" height="20.6395" fill="white" transform="translate(57.4362 0.790649)"/>
</clipPath>
<clipPath id="clip1">
<rect width="17.3496" height="20.6395" fill="white" transform="translate(0.567047 0.790649)"/>
</clipPath>
</defs>
</svg>
