<svg width="124" height="21" viewBox="0 0 124 21" fill="none" xmlns="http://www.w3.org/2000/svg">
<g clip-path="url(#clip0)">
<path d="M0.783539 1.28992L2.1044 17.2452L8.03123 19.3495L13.9959 17.2452L15.3168 1.28992H0.783539ZM12.448 6.44577H5.4917L5.64687 8.43716H12.2928L11.7781 14.4194L8.07286 15.5078V15.5199H8.03123L4.29573 14.4194L4.06865 11.3638H5.87395L6.00642 12.8997L8.03123 13.4842L10.0636 12.8997L10.2907 10.3923H3.97404L3.48959 4.52291H12.6145L12.448 6.44577Z" fill="white"/>
</g>
<g clip-path="url(#clip1)">
<path d="M23.5312 1.28992L24.855 17.2452L30.814 19.3495L36.773 17.2452L38.0968 1.28992H23.5312ZM35.4075 4.51484L35.2254 6.42158L30.8519 8.40894L30.8406 8.41298H35.0699L34.5844 14.3227L30.8595 15.4796L27.1119 14.3025L26.8691 11.3235H28.724L28.8454 12.8674L30.8406 13.4036L32.9154 12.7828L33.0557 10.2996L26.7478 10.2794V10.2754L26.7402 10.2794L26.6036 8.41298L30.8557 6.53042L31.1023 6.42158H26.4405L26.2205 4.51484H35.4075Z" fill="white"/>
</g>
<g clip-path="url(#clip2)">
<path d="M57.9123 15.2749C57.9008 15.299 57.8892 15.3184 57.9123 15.2749V15.2749ZM67.5142 11.7677C66.7391 11.7675 65.9742 11.9537 65.2788 12.312C65.0514 11.8322 64.8163 11.413 64.7778 11.0986C64.7315 10.7317 64.6814 10.5141 64.7354 10.0787C64.7893 9.64332 65.0321 9.02656 65.0283 8.98221C65.0244 8.93787 64.9743 8.71616 64.4771 8.71213C63.98 8.7081 63.5521 8.81291 63.5024 8.94997C63.4146 9.20044 63.3463 9.45793 63.2982 9.71992C63.2095 10.1916 62.3042 11.8766 61.7916 12.7554C61.622 12.4127 61.4794 12.1104 61.4485 11.8685C61.4023 11.5017 61.3522 11.284 61.4061 10.8486C61.4601 10.4133 61.7029 9.79651 61.6991 9.75217C61.6952 9.70782 61.6451 9.48611 61.1483 9.48208C60.6515 9.47805 60.2233 9.58286 60.1732 9.71992C60.1231 9.85698 60.0691 10.1795 59.9689 10.4899C59.8687 10.8003 58.6627 13.606 58.3471 14.3356C58.1852 14.7065 58.0465 15.0048 57.9462 15.2063C57.9308 15.2386 57.9193 15.2587 57.9116 15.2749C57.9231 15.2547 57.9308 15.2345 57.9308 15.2426C57.846 15.4159 57.7959 15.5127 57.7959 15.5127V15.5167C57.7304 15.6457 57.6572 15.7626 57.6225 15.7626C57.5994 15.7626 57.5493 15.424 57.6341 14.9604C57.8152 13.9849 58.243 12.4692 58.2392 12.4168C58.2353 12.3885 58.3201 12.1265 57.9578 11.9854C57.6071 11.8524 57.4799 12.0741 57.4491 12.0741C57.4182 12.0741 57.3951 12.1547 57.3951 12.1547C57.3951 12.1547 57.7844 10.4455 56.6478 10.4455C55.9386 10.4455 54.9519 11.2598 54.4671 11.9975C54.1626 12.1709 53.5035 12.5458 52.8098 12.9448C52.5439 13.098 52.2702 13.2552 52.012 13.4044C51.9927 13.3842 51.9773 13.3641 51.958 13.3439C50.5786 11.804 48.0318 10.7156 48.1397 8.64763C48.1782 7.8938 48.4288 5.9145 53.0372 3.51193C56.8143 1.54473 59.834 2.0849 60.3539 3.28619C61.1017 4.99943 58.7394 8.18808 54.817 8.64763C53.322 8.82097 52.5361 8.21629 52.3396 7.99055C52.1353 7.75271 52.1045 7.74062 52.0274 7.78496C51.9002 7.85752 51.9811 8.06714 52.0274 8.19211C52.143 8.51057 52.6248 9.07493 53.4453 9.35711C54.1661 9.60301 55.919 9.74007 58.0384 8.88144C60.4195 7.92202 62.2729 5.24936 61.7295 3.01207C61.176 0.738493 57.5716 -0.00727105 54.1634 1.25851C52.1326 2.01234 49.9365 3.1975 48.3567 4.74144C46.4801 6.57964 46.1798 8.18001 46.3032 8.84919C46.7422 11.2235 49.871 12.7715 51.1232 13.9164C51.0615 13.9526 51.0037 13.9849 50.9498 14.0171C50.3219 14.3437 47.9366 15.6498 47.3396 17.0284C46.6651 18.5925 47.4513 19.7132 47.9674 19.8663C49.5781 20.334 51.2273 19.4914 52.1133 18.1088C52.9994 16.7261 52.8919 14.9201 52.4833 14.0978C52.4795 14.0857 52.4718 14.0776 52.4679 14.0655C52.6298 13.9647 52.7955 13.8639 52.9613 13.7632C53.2808 13.5656 53.593 13.3842 53.8666 13.227C53.7124 13.6624 53.6007 14.1864 53.5429 14.9443C53.4735 15.8312 53.8242 16.98 54.279 17.4315C54.4794 17.6291 54.7218 17.6331 54.8722 17.6331C55.404 17.6331 55.643 17.1735 55.9085 16.6253C56.2362 15.9561 56.5252 15.1781 56.5252 15.1781C56.5252 15.1781 56.1629 17.2824 57.1534 17.2824C57.5154 17.2824 57.8776 16.7946 58.0399 16.5447V16.5487C58.0399 16.5487 58.0476 16.5326 58.0669 16.5003C58.1054 16.4399 58.1247 16.4036 58.1247 16.4036V16.3915C58.2712 16.1295 58.5911 15.5288 59.0724 14.5372C59.6968 13.2552 60.2938 11.6549 60.2938 11.6549C60.3515 12.0067 60.4313 12.3541 60.5328 12.6949C60.6407 13.0779 60.8681 13.4971 61.0492 13.9043C60.9028 14.1139 60.8141 14.2348 60.8141 14.2348C60.8144 14.2379 60.8158 14.2408 60.818 14.2429C60.7024 14.4041 60.5713 14.5775 60.4364 14.7468C59.9435 15.3595 59.3573 16.0609 59.2802 16.2625C59.1877 16.5003 59.2108 16.6777 59.3881 16.8148C59.5191 16.9196 59.7504 16.9357 59.9928 16.9155C60.436 16.8833 60.7482 16.7704 60.8985 16.6979C61.1757 16.5939 61.4376 16.4501 61.6767 16.2706C62.1585 15.8997 62.4514 15.3676 62.4244 14.6661C62.409 14.2792 62.2895 13.8922 62.1431 13.5294C62.1855 13.4649 62.2317 13.3963 62.2741 13.3278C63.0368 12.1628 63.6265 10.8841 63.6265 10.8841C63.6842 11.2359 63.764 11.5834 63.8655 11.9242C63.958 12.2507 64.1387 12.6095 64.3045 12.9602C63.588 13.5689 63.1448 14.2743 62.9906 14.7379C62.7054 15.5965 62.9289 15.9835 63.349 16.0722C63.5379 16.1125 63.8077 16.0198 64.0081 15.9311C64.3057 15.8274 64.5864 15.6765 64.8402 15.4837C65.322 15.1128 65.7879 14.5928 65.7571 13.8873C65.7456 13.5689 65.6608 13.2504 65.549 12.944C66.1541 12.678 66.94 12.5329 67.942 12.6538C70.088 12.9158 70.5082 14.3187 70.4272 14.9032C70.3463 15.4877 69.8953 15.8142 69.745 15.911C69.5947 16.0077 69.5485 16.044 69.56 16.1166C69.5793 16.2214 69.6487 16.2173 69.7759 16.1932C69.9532 16.1609 70.9009 15.7175 70.9433 14.6331C71.005 13.2625 69.745 11.7548 67.5131 11.7669L67.5142 11.7677ZM50.9729 17.6008C50.2641 18.4111 49.2697 18.7175 48.8423 18.4595C48.3837 18.1805 48.5648 16.9881 49.4393 16.1246C49.9712 15.6006 50.6569 15.1168 51.1116 14.8185C51.2157 14.754 51.366 14.6573 51.551 14.5404C51.5819 14.5202 51.5973 14.5122 51.5973 14.5122C51.632 14.488 51.6705 14.4678 51.709 14.4436C52.0286 15.6691 51.7206 16.7495 50.9729 17.6V17.6008ZM56.1514 13.9164C55.9047 14.5492 55.3848 16.1617 55.0687 16.0771C54.7989 16.0045 54.6332 14.775 55.0148 13.5656C55.2075 12.9569 55.616 12.2313 55.8588 11.9491C56.2477 11.4936 56.6755 11.3485 56.7757 11.5299C56.9106 11.7677 56.3055 13.5213 56.1514 13.9164ZM60.4295 16.0529C60.3254 16.1093 60.2291 16.1456 60.1828 16.1174C60.1481 16.0972 60.2252 16.0206 60.2252 16.0206C60.2252 16.0206 60.7609 15.42 60.9729 15.1459C61.0963 14.9846 61.2389 14.7951 61.3926 14.5855C61.3926 14.6057 61.3965 14.6258 61.3965 14.65C61.3915 15.3716 60.729 15.8594 60.4283 16.0529H60.4295ZM63.7279 15.2668C63.6508 15.2104 63.6624 15.0209 63.9206 14.4323C64.0208 14.2026 64.2517 13.8156 64.6529 13.4447C64.6983 13.5851 64.723 13.7319 64.7261 13.8801C64.7223 14.7871 64.1017 15.1257 63.7283 15.2668H63.7279Z" fill="white"/>
</g>
<g clip-path="url(#clip3)">
<path d="M94.5061 1.28992H80.9809C79.9627 1.28992 79.1366 2.15662 79.1366 3.22487V17.4146C79.1366 18.4828 79.9627 19.3495 80.9809 19.3495H94.5061C95.5244 19.3495 96.3505 18.4828 96.3505 17.4146V3.22487C96.3505 2.15662 95.5244 1.28992 94.5061 1.28992ZM88.5043 15.3748C88.5043 17.1324 87.5207 17.9346 86.0875 17.9346C84.7926 17.9346 84.0433 17.2332 83.6591 16.3826L84.977 15.5481C85.2306 16.0198 85.4611 16.4189 86.0183 16.4189C86.5485 16.4189 86.8867 16.2012 86.8867 15.3506V9.58201H88.5043V15.3748ZM92.3313 17.9346C90.829 17.9346 89.8568 17.1848 89.3842 16.2012L90.7022 15.403C91.048 15.9956 91.5014 16.435 92.2968 16.435C92.9653 16.435 93.3957 16.0843 93.3957 15.5965C93.3957 15.016 92.9577 14.8104 92.2161 14.4678L91.8126 14.2864C90.6445 13.7664 89.8722 13.1093 89.8722 11.7266C89.8722 10.4527 90.7982 9.48526 92.2391 9.48526C93.2689 9.48526 94.0066 9.86016 94.5369 10.8438L93.2766 11.6903C92.9999 11.1703 92.7002 10.9647 92.2353 10.9647C91.7627 10.9647 91.463 11.2791 91.463 11.6903C91.463 12.1982 91.7627 12.4038 92.4581 12.7223L92.8616 12.9037C94.2372 13.5205 95.0095 14.1533 95.0095 15.5723C95.0095 17.0961 93.8645 17.9346 92.3313 17.9346Z" fill="white"/>
</g>
<g clip-path="url(#clip4)">
<path d="M120.411 7.14326C120.205 7.0707 119.998 7.00217 119.792 6.93767C119.826 6.78852 119.857 6.63937 119.887 6.49022C120.358 4.08765 120.048 2.15672 119.003 1.5198C117.997 0.911094 116.356 1.54399 114.696 3.06776C114.531 3.21692 114.37 3.37413 114.217 3.53135C114.114 3.42654 114.007 3.32173 113.9 3.22095C112.159 1.59236 110.414 0.907063 109.37 1.54802C108.368 2.16075 108.069 3.97881 108.49 6.25238C108.532 6.47812 108.578 6.69984 108.632 6.92558C108.387 6.99814 108.146 7.07876 107.92 7.16342C105.877 7.90918 104.412 9.08628 104.412 10.3037C104.412 11.5614 105.973 12.8232 108.096 13.5891C108.268 13.6496 108.44 13.71 108.616 13.7624C108.559 14.0043 108.509 14.2421 108.463 14.488C108.062 16.7253 108.375 18.499 109.378 19.1077C110.411 19.7366 112.148 19.0916 113.839 17.5316C113.972 17.4066 114.106 17.2776 114.24 17.1405C114.409 17.3139 114.585 17.4792 114.761 17.6404C116.398 19.1239 118.016 19.7245 119.015 19.1158C120.048 18.4869 120.385 16.5802 119.948 14.2583C119.914 14.0809 119.876 13.8995 119.834 13.714C119.956 13.6778 120.075 13.6375 120.193 13.5971C122.401 12.8272 124 11.5816 124 10.3037C124 9.08225 122.493 7.89709 120.411 7.14326ZM115.235 3.72081C116.658 2.41472 117.986 1.90276 118.59 2.26959C119.237 2.66062 119.486 4.24083 119.08 6.31688C119.053 6.45394 119.026 6.58696 118.992 6.71999C118.143 6.51843 117.282 6.37331 116.417 6.29269C115.92 5.54289 115.377 4.82535 114.787 4.15214C114.937 4.00299 115.082 3.8619 115.235 3.72081ZM110.809 12.3959C111.004 12.7466 111.203 13.0973 111.413 13.4399C110.816 13.3714 110.223 13.2706 109.638 13.1376C109.806 12.5571 110.017 11.9565 110.261 11.3437C110.437 11.6985 110.617 12.0492 110.809 12.3959ZM109.649 7.54638C110.2 7.41738 110.786 7.31257 111.394 7.23195C111.191 7.56653 110.992 7.90918 110.805 8.25586C110.617 8.59851 110.434 8.94922 110.261 9.30396C110.02 8.70332 109.818 8.11477 109.649 7.54638ZM110.698 10.3238C110.95 9.76755 111.226 9.22334 111.516 8.6872C111.807 8.15105 112.121 7.63103 112.45 7.11908C113.024 7.07473 113.609 7.05055 114.206 7.05055C114.803 7.05055 115.392 7.07473 115.962 7.11908C116.287 7.627 116.597 8.14702 116.892 8.67913C117.186 9.21125 117.462 9.75545 117.722 10.3077C117.465 10.864 117.19 11.4123 116.895 11.9524C116.605 12.4886 116.295 13.0086 115.97 13.5246C115.4 13.5689 114.807 13.5891 114.206 13.5891C113.605 13.5891 113.024 13.5689 112.461 13.5326C112.128 13.0207 111.815 12.4966 111.52 11.9605C111.226 11.4244 110.954 10.8801 110.698 10.3238ZM117.607 12.3878C117.802 12.0331 117.986 11.6743 118.166 11.3115C118.41 11.896 118.625 12.4886 118.812 13.0973C118.219 13.2384 117.619 13.3472 117.014 13.4198C117.221 13.0812 117.416 12.7345 117.607 12.3878ZM118.158 9.30396C117.978 8.94922 117.795 8.59448 117.603 8.2478C117.416 7.90515 117.221 7.56653 117.018 7.23195C117.634 7.31257 118.223 7.42141 118.774 7.55444C118.598 8.15105 118.391 8.73154 118.158 9.30396ZM114.214 4.76891C114.615 5.22846 114.994 5.7122 115.346 6.21207C114.588 6.17579 113.827 6.17579 113.07 6.21207C113.445 5.69205 113.831 5.20831 114.214 4.76891ZM109.776 2.29781C110.418 1.90276 111.845 2.46712 113.349 3.86996C113.445 3.95865 113.54 4.0554 113.64 4.15214C113.047 4.82535 112.5 5.54289 111.998 6.29269C111.134 6.37331 110.277 6.5144 109.427 6.71193C109.378 6.50634 109.336 6.29672 109.294 6.0871C108.934 4.13602 109.171 2.66465 109.776 2.29781ZM108.838 12.9239C108.678 12.8756 108.521 12.8232 108.364 12.7667C107.549 12.4966 106.623 12.0693 105.954 11.509C105.567 11.2268 105.307 10.7915 105.234 10.3037C105.234 9.56599 106.443 8.6227 108.188 7.98174C108.406 7.90112 108.628 7.82856 108.85 7.76003C109.11 8.63479 109.424 9.49343 109.787 10.3238C109.42 11.1664 109.102 12.0371 108.838 12.9239ZM113.299 16.8745C112.668 17.4832 111.937 17.9669 111.141 18.2975C110.717 18.5111 110.227 18.5313 109.791 18.3499C109.183 17.979 108.93 16.556 109.274 14.6412C109.316 14.4155 109.362 14.1897 109.416 13.968C110.273 14.1615 111.138 14.2945 112.014 14.3631C112.519 15.1169 113.073 15.8385 113.666 16.5157C113.544 16.6407 113.422 16.7616 113.299 16.8745ZM114.236 15.8949C113.846 15.4515 113.456 14.9597 113.077 14.4316C113.445 14.4477 113.823 14.4558 114.206 14.4558C114.6 14.4558 114.986 14.4477 115.369 14.4276C115.017 14.9395 114.638 15.4273 114.236 15.8949ZM119.237 17.1043C119.202 17.5961 118.973 18.0556 118.606 18.366C117.997 18.7369 116.7 18.2531 115.3 16.9873C115.139 16.8422 114.979 16.685 114.814 16.5238C115.4 15.8425 115.939 15.1209 116.429 14.3631C117.305 14.2865 118.177 14.1454 119.038 13.9398C119.076 14.1051 119.111 14.2703 119.141 14.4316C119.329 15.3023 119.359 16.2093 119.237 17.1043ZM119.933 12.7708C119.826 12.807 119.719 12.8433 119.608 12.8756C119.34 11.9968 119.011 11.1381 118.632 10.3037C119 9.48133 119.31 8.63479 119.57 7.76809C119.769 7.82856 119.96 7.89306 120.144 7.95756C121.926 8.60254 123.177 9.56196 123.177 10.2956C123.177 11.0857 121.842 12.1056 119.933 12.7708ZM114.206 12.1661C115.174 12.1661 115.958 11.3397 115.958 10.3198C115.958 9.29993 115.174 8.47354 114.206 8.47354C113.238 8.47354 112.454 9.29993 112.454 10.3198C112.454 11.3397 113.238 12.1661 114.206 12.1661Z" fill="white"/>
</g>
<defs>
<clipPath id="clip0">
<rect width="14.5332" height="20.6395" fill="white" transform="translate(0.783539)"/>
</clipPath>
<clipPath id="clip1">
<rect width="14.5656" height="20.6395" fill="white" transform="translate(23.5312)"/>
</clipPath>
<clipPath id="clip2">
<rect width="24.6667" height="20.6395" fill="white" transform="translate(46.2788)"/>
</clipPath>
<clipPath id="clip3">
<rect width="17.2139" height="20.6395" fill="white" transform="translate(79.1366)"/>
</clipPath>
<clipPath id="clip4">
<rect width="19.5883" height="20.6395" fill="white" transform="translate(104.412)"/>
</clipPath>
</defs>
</svg>
