<svg width="49" height="22" viewBox="0 0 49 22" fill="none" xmlns="http://www.w3.org/2000/svg">
<path d="M39.2163 19.8142L32.0747 15.3677V6.49267L39.2163 2.04614L46.3578 6.49267V15.3677L39.2163 19.8142ZM32.8909 14.8775L39.2163 18.8158L45.5416 14.8775V6.98286L39.2163 3.04458L32.8909 6.98286V14.8775Z" fill="white"/>
<path d="M39.2163 4.2653C40.0051 4.2653 40.6446 3.59151 40.6446 2.76034C40.6446 1.92917 40.0051 1.25537 39.2163 1.25537C38.4274 1.25537 37.7879 1.92917 37.7879 2.76034C37.7879 3.59151 38.4274 4.2653 39.2163 4.2653Z" fill="white"/>
<path d="M39.2163 20.6049C40.0051 20.6049 40.6446 19.9311 40.6446 19.0999C40.6446 18.2688 40.0051 17.595 39.2163 17.595C38.4274 17.595 37.7879 18.2688 37.7879 19.0999C37.7879 19.9311 38.4274 20.6049 39.2163 20.6049Z" fill="white"/>
<path d="M32.6868 16.305C33.4757 16.305 34.1151 15.6312 34.1151 14.8C34.1151 13.9688 33.4757 13.295 32.6868 13.295C31.898 13.295 31.2585 13.9688 31.2585 14.8C31.2585 15.6312 31.898 16.305 32.6868 16.305Z" fill="white"/>
<path d="M45.7457 16.305C46.5345 16.305 47.174 15.6312 47.174 14.8C47.174 13.9688 46.5345 13.295 45.7457 13.295C44.9568 13.295 44.3174 13.9688 44.3174 14.8C44.3174 15.6312 44.9568 16.305 45.7457 16.305Z" fill="white"/>
<path d="M32.6868 8.56523C33.4757 8.56523 34.1151 7.89143 34.1151 7.06026C34.1151 6.22909 33.4757 5.5553 32.6868 5.5553C31.898 5.5553 31.2585 6.22909 31.2585 7.06026C31.2585 7.89143 31.898 8.56523 32.6868 8.56523Z" fill="white"/>
<path d="M45.7457 8.56523C46.5345 8.56523 47.174 7.89143 47.174 7.06026C47.174 6.22909 46.5345 5.5553 45.7457 5.5553C44.9568 5.5553 44.3174 6.22909 44.3174 7.06026C44.3174 7.89143 44.9568 8.56523 45.7457 8.56523Z" fill="white"/>
<path d="M46.6516 15.4451H31.7809L39.2163 1.6759L46.6516 15.4451ZM33.1847 14.5851H45.2478L39.2163 3.41478L33.1847 14.5851Z" fill="white"/>
<g clip-path="url(#clip0)">
<path d="M18.6172 8.21196C18.7086 7.86746 18.7548 7.51183 18.7548 7.1506C18.7548 4.98079 17.0792 3.2155 15.0195 3.2155C14.8714 3.2155 14.7246 3.22445 14.5802 3.24223C14.2847 2.4676 13.7956 1.79879 13.1519 1.29349C12.4033 0.705946 11.5129 0.395386 10.5771 0.395386C9.64129 0.395386 8.75098 0.705946 8.00238 1.29349C7.35861 1.79879 6.86951 2.46752 6.57401 3.24211C6.42996 3.22445 6.28309 3.2155 6.13469 3.2155C4.0757 3.2155 2.40052 4.98079 2.40052 7.1506C2.40052 7.51183 2.44674 7.86746 2.53817 8.21196C1.63685 8.80499 1.0896 9.8341 1.0896 10.974C1.0896 12.7714 2.47727 14.2338 4.18294 14.2338H4.76867V15.5446C4.76867 16.0152 5.13194 16.398 5.57845 16.398H5.72961C5.83241 16.7719 5.97415 17.1322 6.15324 17.4746L6.04719 17.5863C5.89396 17.7467 5.80941 17.9609 5.80903 18.1892C5.80869 18.4182 5.89293 18.6333 6.04612 18.7947L6.89404 19.6894C7.21055 20.0208 7.72432 20.0203 8.03884 19.6889L8.14692 19.5754C8.4715 19.7638 8.81307 19.9129 9.16769 20.0211V20.1805C9.16769 20.6516 9.53145 21.0349 9.97854 21.0349H11.1767C11.6238 21.0349 11.9876 20.6516 11.9876 20.1805V20.021C12.3414 19.9128 12.6828 19.7638 13.0077 19.5755L13.1149 19.6885C13.4309 20.0215 13.945 20.0214 14.261 19.6885L15.1099 18.794C15.4243 18.4605 15.4239 17.9192 15.109 17.5873L15.0017 17.4742C15.1803 17.132 15.322 16.7718 15.4252 16.398H15.5758C16.0229 16.398 16.3866 16.0152 16.3866 15.5446V14.2338H16.9723C18.678 14.2338 20.0657 12.7714 20.0657 10.974C20.0657 9.8341 19.5185 8.80499 18.6172 8.21196ZM15.6215 15.5446C15.6215 15.5698 15.6001 15.5918 15.5758 15.5918H15.1291C14.9502 15.5918 14.7953 15.7223 14.7559 15.9061C14.6482 16.4084 14.4605 16.8853 14.1982 17.3236C14.1029 17.4828 14.1249 17.6905 14.2513 17.8236L14.5679 18.1573C14.5846 18.1749 14.5842 18.2075 14.5679 18.2248L13.72 19.1184C13.7098 19.1292 13.6969 19.1314 13.688 19.1314C13.6791 19.1314 13.6663 19.1291 13.656 19.1184L13.3395 18.7848C13.213 18.6516 13.0159 18.6284 12.8647 18.7289C12.4484 19.0056 11.9964 19.2029 11.5213 19.3152C11.3467 19.3565 11.2225 19.5199 11.2225 19.7085V20.1805C11.2225 20.2057 11.2007 20.2287 11.1768 20.2287H9.97861C9.95424 20.2287 9.93293 20.2062 9.93293 20.1805V19.7085C9.93293 19.5198 9.80871 19.3564 9.63394 19.3151C9.15797 19.2029 8.70614 19.0057 8.29104 18.7291C8.14 18.6284 7.94297 18.6513 7.81644 18.7843L7.49833 19.1184C7.4813 19.1362 7.45096 19.1358 7.43451 19.1186L6.58751 18.2248C6.57657 18.2133 6.57427 18.1998 6.57427 18.1905C6.57431 18.1776 6.57844 18.1667 6.58747 18.1573L6.9041 17.8236C7.03066 17.6903 7.05254 17.4823 6.95682 17.3229C6.69375 16.8852 6.50633 16.4087 6.3997 15.9068C6.3606 15.7227 6.20546 15.5918 6.02634 15.5918H5.57845C5.55427 15.5918 5.53384 15.5702 5.53384 15.5446V14.2338H7.31603C7.27452 14.4561 7.25282 14.683 7.25282 14.9128C7.25282 16.8444 8.74409 18.4159 10.5771 18.4159C12.4108 18.4159 13.9025 16.8444 13.9025 14.9128C13.9025 14.6836 13.8807 14.4568 13.8387 14.2338H15.6215V15.5446H15.6215ZM16.9724 13.4275H12.2947C12.0834 13.4275 11.9121 13.608 11.9121 13.8306C11.9121 14.0532 12.0834 14.2338 12.2947 14.2338H13.0542C13.1091 14.4552 13.1374 14.6825 13.1374 14.9128C13.1374 16.3999 11.9888 17.6097 10.5771 17.6097C9.16601 17.6097 8.01799 16.3998 8.01799 14.9128C8.01799 14.6815 8.04596 14.4542 8.10028 14.2338H8.8596C9.07086 14.2338 9.24218 14.0532 9.24218 13.8306C9.24218 13.608 9.07086 13.4275 8.8596 13.4275H4.18294C2.89918 13.4275 1.85477 12.3269 1.85477 10.974C1.85477 10.026 2.35763 9.17984 3.16714 8.76556C3.34512 8.67446 3.42783 8.45537 3.35782 8.26034C3.23034 7.90527 3.16573 7.53195 3.16573 7.15064C3.16573 5.42539 4.49757 4.02178 6.13472 4.02178C6.34568 4.02178 6.5514 4.04415 6.74621 4.08817C6.93907 4.13183 7.13189 4.01367 7.19134 3.81542C7.65993 2.25206 9.02059 1.20162 10.5771 1.20162C12.1337 1.20162 13.4943 2.25202 13.9629 3.81542C14.0223 4.01351 14.2148 4.13175 14.4076 4.08825C14.6037 4.04411 14.8096 4.02178 15.0195 4.02178C16.6572 4.02178 17.9896 5.42539 17.9896 7.15064C17.9896 7.53195 17.925 7.90531 17.7975 8.26034C17.7275 8.45537 17.8102 8.67446 17.9882 8.76556C18.7977 9.17984 19.3006 10.026 19.3006 10.974C19.3006 12.3269 18.2561 13.4275 16.9724 13.4275Z" fill="white"/>
<path d="M14.6182 6.11462C14.407 6.11462 14.2357 6.29514 14.2357 6.51774V10.4942C14.2357 10.7168 14.407 10.8974 14.6182 10.8974C14.8295 10.8974 15.0008 10.7168 15.0008 10.4942V6.51774C15.0008 6.29514 14.8295 6.11462 14.6182 6.11462Z" fill="white"/>
<path d="M11.5714 6.11462H10.5011C10.2933 6.11462 10.1186 6.29808 10.1186 6.51774V10.5674C10.1186 10.79 10.2899 10.9705 10.5011 10.9705C10.7124 10.9705 10.8837 10.79 10.8837 10.5674V9.20935C11.1217 9.20781 11.4141 9.2062 11.5714 9.2062C12.3922 9.2062 13.0599 8.51276 13.0599 7.66041C13.0599 6.80806 12.3922 6.11462 11.5714 6.11462ZM11.5714 8.39993C11.4148 8.39993 11.1266 8.4015 10.8894 8.40303C10.8882 8.1454 10.887 7.82924 10.887 7.66037C10.887 7.51727 10.8861 7.18917 10.8851 6.92082H11.5714C11.9635 6.92082 12.2948 7.25947 12.2948 7.66037C12.2948 8.06127 11.9635 8.39993 11.5714 8.39993Z" fill="white"/>
<path d="M7.48786 6.43248C7.48687 6.4297 7.48584 6.42687 7.48476 6.42413C7.41276 6.23592 7.24198 6.11426 7.04969 6.11426C6.8574 6.11426 6.68662 6.23592 6.61462 6.42413C6.6137 6.42655 6.61278 6.42893 6.61194 6.43135L5.16872 10.4238C5.0935 10.6319 5.19259 10.8648 5.39004 10.944C5.58753 11.0233 5.80851 10.9189 5.88373 10.7108L6.14924 9.97631H7.9395L8.20222 10.7097C8.26003 10.8711 8.4056 10.9706 8.56021 10.9706C8.60508 10.9706 8.65072 10.9622 8.69522 10.9445C8.8929 10.8659 8.99264 10.6333 8.91804 10.425L7.48786 6.43248ZM6.44069 9.17008L7.04843 7.48884L7.65069 9.17008H6.44069Z" fill="white"/>
<path d="M10.577 13.4275C10.3657 13.4275 10.1944 13.608 10.1944 13.8306C10.1944 14.0532 10.3657 14.2337 10.577 14.2337H10.5792C10.7905 14.2337 10.9607 14.0532 10.9607 13.8306C10.9607 13.608 10.7883 13.4275 10.577 13.4275Z" fill="white"/>
</g>
<defs>
<clipPath id="clip0">
<rect width="19.5883" height="20.6395" fill="white" transform="translate(0.783539 0.395386)"/>
</clipPath>
</defs>
</svg>
