<svg width="107" height="41" viewBox="0 0 107 41" fill="none" xmlns="http://www.w3.org/2000/svg">
<path d="M30.6269 2.88544V0H18.3443V2.96958L15.2737 2.90029V0H3.18018V26.0234L6.16622 26.162L6.22594 28.9782H18.3742V26.0927L21.3602 26.0234L21.4797 28.993H33.5732V2.96958L30.6269 2.88544ZM27.4966 23.2172H21.4L21.3403 11.6754H18.3543V14.4866H15.3185L15.194 11.7447L12.3672 11.6061L12.1831 23.2172H6.18613V3.01907H12.3274V5.90452H15.2737V8.58209H18.3742V5.76593L21.4 5.70159V3.01907H27.4966V23.2172Z" fill="#00E3FF"/>
<path d="M67.6539 11.7101V3.05374L64.7674 2.85082V0.034668H37.3953V25.9888L40.3415 26.1967L40.4062 28.9435H67.6688V20.3614H64.7823V11.6408L67.6539 11.7101ZM61.637 5.86989H46.5923L46.5326 11.6408L58.5663 11.5022V14.4718H46.5326L46.4679 20.2922L61.637 20.3614V23.2617H40.3913V3.05374H61.637V5.86989Z" fill="#00E3FF"/>
<path d="M100.754 2.92011V0.034668H88.6557V2.92011H85.6L85.5254 0.034668H73.4866V17.4067H76.6419V20.2229H79.7125V23.2617H82.599V26.1373H85.6V28.9534H94.812V25.9839L97.798 26.1224V23.2617H100.869V20.3614H103.82V3.03889L100.754 2.92011ZM97.7682 14.4866H94.8219V17.4562H91.7513L91.811 20.2724H88.6806V23.2419H85.401L85.4607 20.213H82.5742V17.476L79.3194 17.4067L79.3841 14.4866H76.5573V2.92011H82.5742V14.4866H85.6448V17.4562H88.6309V14.4866H91.7015V2.92011H97.7433L97.7682 14.4866Z" fill="#00E3FF"/>
<path d="M4.29639 37.7489L6.07471 33.1171H5.59131L3.81006 37.7489H4.29639ZM9.74854 34.702L8.98389 35.66L9.41162 35.9706L10.0327 34.9335L10.6597 35.9969L11.0874 35.6747L10.3374 34.7255L11.4565 34.4501L11.2983 33.9286L10.2349 34.368L10.3198 33.1171H9.79834L9.87158 34.3505L8.80225 33.9081L8.64404 34.4208L9.74854 34.702ZM13.7329 37.3827H14.7202C14.9253 37.3807 15.1157 37.3563 15.2915 37.3094C15.4692 37.2626 15.6284 37.1952 15.769 37.1073C15.9019 37.0233 16.022 36.9218 16.1294 36.8026C16.2368 36.6835 16.3257 36.5507 16.396 36.4042C16.4644 36.2635 16.5161 36.1093 16.5513 35.9413C16.5884 35.7733 16.6069 35.5956 16.6069 35.4081V35.0946C16.605 34.8993 16.5845 34.7157 16.5454 34.5438C16.5083 34.3719 16.4536 34.2137 16.3813 34.0692C16.3013 33.8993 16.1938 33.7499 16.0591 33.621C15.9263 33.4901 15.7729 33.3846 15.5991 33.3046C15.4741 33.246 15.3374 33.201 15.189 33.1698C15.0425 33.1366 14.8862 33.119 14.7202 33.1171H13.7329V37.3827ZM14.2837 33.5624H14.7202C14.855 33.5643 14.979 33.58 15.0923 33.6093C15.2056 33.6366 15.3081 33.6757 15.3999 33.7264C15.5288 33.7948 15.6372 33.8846 15.7251 33.996C15.8149 34.1053 15.8862 34.2284 15.939 34.3651C15.98 34.4706 16.0103 34.5848 16.0298 34.7079C16.0513 34.829 16.063 34.9559 16.0649 35.0887V35.4081C16.063 35.5389 16.0522 35.6649 16.0327 35.786C16.0132 35.9052 15.9839 36.0165 15.9448 36.12C15.8999 36.2469 15.8384 36.3622 15.7603 36.4657C15.6841 36.5673 15.5933 36.6532 15.4878 36.7235C15.3882 36.7919 15.2739 36.8446 15.145 36.8817C15.0181 36.9188 14.8765 36.9384 14.7202 36.9403H14.2837V33.5624ZM21.2388 35.411V34.951H19.4575V33.58H21.5083V33.1171H18.9155V37.3827H21.5347V36.9227H19.4575V35.411H21.2388ZM26.228 36.3046C26.228 36.4218 26.2026 36.5233 26.1519 36.6093C26.1011 36.6932 26.0356 36.7626 25.9556 36.8173C25.8755 36.8739 25.7837 36.9159 25.6802 36.9432C25.5786 36.9686 25.4751 36.9813 25.3696 36.9813C25.2368 36.9813 25.1138 36.9637 25.0005 36.9286C24.8892 36.8915 24.7905 36.8368 24.7046 36.7645C24.6187 36.6942 24.5483 36.6083 24.4937 36.5067C24.439 36.4032 24.4028 36.285 24.3853 36.1522H23.8315C23.8374 36.3358 23.8774 36.5028 23.9517 36.6532C24.0278 36.8016 24.1304 36.9315 24.2593 37.0428C24.4038 37.1718 24.5737 37.2704 24.769 37.3387C24.9663 37.4071 25.1665 37.4413 25.3696 37.4413C25.5396 37.4413 25.7095 37.4178 25.8794 37.371C26.0493 37.3221 26.2017 37.2499 26.3364 37.1542C26.4712 37.0604 26.5806 36.9423 26.6646 36.7997C26.7505 36.6571 26.7935 36.4901 26.7935 36.2987C26.7935 36.1093 26.7534 35.9423 26.6733 35.7977C26.5952 35.6532 26.4917 35.5311 26.3628 35.4315C26.2319 35.3241 26.0874 35.2362 25.9292 35.1678C25.771 35.0975 25.6128 35.038 25.4546 34.9891C25.3589 34.9598 25.2563 34.9257 25.147 34.8866C25.0396 34.8475 24.9399 34.7987 24.8481 34.7401C24.7544 34.6815 24.6772 34.6102 24.6167 34.5262C24.5562 34.4403 24.5249 34.3358 24.5229 34.2128C24.5229 34.0995 24.5454 33.9999 24.5903 33.9139C24.6372 33.828 24.6997 33.7557 24.7778 33.6971C24.854 33.6385 24.9409 33.5946 25.0386 33.5653C25.1382 33.536 25.2397 33.5214 25.3433 33.5214C25.4722 33.5214 25.5874 33.5419 25.689 33.5829C25.7925 33.6219 25.8813 33.6776 25.9556 33.7499C26.0298 33.8221 26.0894 33.9091 26.1343 34.0106C26.1792 34.1102 26.2095 34.2216 26.2251 34.3446H26.7817C26.7778 34.1493 26.7358 33.9725 26.6558 33.8143C26.5757 33.6561 26.4692 33.5214 26.3364 33.41C26.2036 33.2987 26.0513 33.2128 25.8794 33.1522C25.7075 33.0897 25.5288 33.0585 25.3433 33.0585C25.1753 33.0585 25.0083 33.0848 24.8423 33.1376C24.6763 33.1884 24.5278 33.2635 24.397 33.3632C24.2661 33.4628 24.1597 33.5848 24.0776 33.7294C23.9976 33.8739 23.9575 34.038 23.9575 34.2216C23.9575 34.4052 23.9976 34.5653 24.0776 34.702C24.1597 34.8368 24.2651 34.954 24.394 35.0536C24.521 35.1512 24.6616 35.2352 24.8159 35.3055C24.9722 35.3739 25.1255 35.4325 25.2759 35.4813C25.3794 35.5145 25.4868 35.5516 25.5981 35.5927C25.7114 35.6337 25.8149 35.6844 25.9087 35.745C26.0024 35.8075 26.0786 35.8837 26.1372 35.9735C26.1978 36.0634 26.228 36.1737 26.228 36.3046ZM31.1353 36.2782L31.4722 37.3827H32.0112L30.6577 33.1171H30.2036L28.8267 37.3827H29.3687L29.7114 36.2782H31.1353ZM29.8579 35.8065L30.4292 33.955L30.9917 35.8065H29.8579ZM35.6147 35.6425L36.4526 37.3827H37.0239L37.0269 37.3475L36.1216 35.5253C36.2388 35.4745 36.3462 35.413 36.4438 35.3407C36.5415 35.2684 36.6255 35.1854 36.6958 35.0917C36.7661 34.9979 36.8208 34.8934 36.8599 34.7782C36.9009 34.663 36.9214 34.536 36.9214 34.3973C36.9214 34.1825 36.8833 33.996 36.8071 33.8378C36.7329 33.6776 36.6304 33.5448 36.4995 33.4393C36.3667 33.3339 36.2124 33.2548 36.0366 33.202C35.8608 33.1493 35.6733 33.121 35.4741 33.1171H34.2231V37.3827H34.7622V35.6425H35.6147ZM34.7622 35.1971V33.5624H35.4741C35.605 33.5643 35.7251 33.5829 35.8345 33.618C35.9458 33.6532 36.0415 33.705 36.1216 33.7733C36.2017 33.8436 36.2642 33.9305 36.3091 34.0341C36.354 34.1356 36.3765 34.2548 36.3765 34.3915C36.3765 34.5204 36.353 34.6346 36.3062 34.7343C36.2593 34.8319 36.1958 34.9149 36.1157 34.9833C36.0337 35.0516 35.939 35.1044 35.8315 35.1415C35.7241 35.1766 35.6099 35.1952 35.4888 35.1971H34.7622ZM40.7183 35.6425L41.5562 37.3827H42.1274L42.1304 37.3475L41.2251 35.5253C41.3423 35.4745 41.4497 35.413 41.5474 35.3407C41.645 35.2684 41.729 35.1854 41.7993 35.0917C41.8696 34.9979 41.9243 34.8934 41.9634 34.7782C42.0044 34.663 42.0249 34.536 42.0249 34.3973C42.0249 34.1825 41.9868 33.996 41.9106 33.8378C41.8364 33.6776 41.7339 33.5448 41.603 33.4393C41.4702 33.3339 41.3159 33.2548 41.1401 33.202C40.9644 33.1493 40.7769 33.121 40.5776 33.1171H39.3267V37.3827H39.8657V35.6425H40.7183ZM39.8657 35.1971V33.5624H40.5776C40.7085 33.5643 40.8286 33.5829 40.938 33.618C41.0493 33.6532 41.145 33.705 41.2251 33.7733C41.3052 33.8436 41.3677 33.9305 41.4126 34.0341C41.4575 34.1356 41.48 34.2548 41.48 34.3915C41.48 34.5204 41.4565 34.6346 41.4097 34.7343C41.3628 34.8319 41.2993 34.9149 41.2192 34.9833C41.1372 35.0516 41.0425 35.1044 40.9351 35.1415C40.8276 35.1766 40.7134 35.1952 40.5923 35.1971H39.8657ZM47.1841 35.496V35.0096C47.1821 34.8573 47.1685 34.703 47.1431 34.5468C47.1196 34.3905 47.0825 34.2401 47.0317 34.0956C46.979 33.951 46.9126 33.8163 46.8325 33.6913C46.7544 33.5643 46.6606 33.454 46.5513 33.3602C46.4419 33.2665 46.3159 33.1932 46.1733 33.1405C46.0308 33.0858 45.8716 33.0585 45.6958 33.0585C45.52 33.0585 45.3608 33.0858 45.2183 33.1405C45.0776 33.1932 44.9526 33.2665 44.8433 33.3602C44.7339 33.4559 44.6392 33.5673 44.5591 33.6942C44.481 33.8192 44.4165 33.954 44.3657 34.0985C44.313 34.243 44.2739 34.3934 44.2485 34.5497C44.2251 34.704 44.2124 34.8573 44.2104 35.0096V35.496C44.2124 35.6483 44.2261 35.8016 44.2515 35.9559C44.2769 36.1102 44.3159 36.2596 44.3687 36.4042C44.4194 36.5487 44.4849 36.6844 44.5649 36.8114C44.645 36.9364 44.7397 37.0458 44.8491 37.1395C44.9585 37.2333 45.0835 37.3075 45.2241 37.3622C45.3667 37.4149 45.5259 37.4413 45.7017 37.4413C45.8774 37.4413 46.0356 37.4149 46.1763 37.3622C46.3188 37.3075 46.4448 37.2333 46.5542 37.1395C46.6636 37.0458 46.7573 36.9364 46.8354 36.8114C46.9155 36.6864 46.981 36.5516 47.0317 36.4071C47.0825 36.2626 47.1196 36.1132 47.1431 35.9589C47.1685 35.8026 47.1821 35.6483 47.1841 35.496ZM46.6479 35.0038V35.496C46.646 35.5975 46.6392 35.704 46.6274 35.8153C46.6177 35.9266 46.5991 36.036 46.5718 36.1434C46.5425 36.2528 46.5044 36.3573 46.4575 36.4569C46.4126 36.5546 46.356 36.6405 46.2876 36.7147C46.2173 36.7909 46.1333 36.8514 46.0356 36.8964C45.9399 36.9413 45.8286 36.9637 45.7017 36.9637C45.5747 36.9637 45.4634 36.9413 45.3677 36.8964C45.272 36.8514 45.189 36.7909 45.1187 36.7147C45.0483 36.6405 44.9897 36.5536 44.9429 36.454C44.896 36.3544 44.8579 36.2499 44.8286 36.1405C44.7993 36.0331 44.7778 35.9237 44.7642 35.8124C44.7524 35.701 44.7456 35.5956 44.7437 35.496V35.0038C44.7456 34.9042 44.7524 34.7997 44.7642 34.6903C44.7778 34.579 44.7993 34.4686 44.8286 34.3593C44.856 34.2518 44.8931 34.1493 44.9399 34.0516C44.9868 33.952 45.0454 33.8641 45.1157 33.788C45.186 33.7137 45.269 33.6542 45.3647 33.6093C45.4604 33.5643 45.5708 33.5419 45.6958 33.5419C45.8228 33.5419 45.9341 33.5643 46.0298 33.6093C46.1255 33.6522 46.2085 33.7108 46.2788 33.785C46.3491 33.8612 46.4077 33.9491 46.4546 34.0487C46.5015 34.1464 46.5396 34.2489 46.5688 34.3563C46.5962 34.4657 46.6157 34.576 46.6274 34.6874C46.6392 34.7968 46.646 34.9022 46.6479 35.0038ZM50.1255 36.9227V33.1171H49.5835V37.3827H52.2114V36.9227H50.1255ZM55.229 36.9227V33.1171H54.687V37.3827H57.3149V36.9227H55.229ZM62.4946 35.496V35.0096C62.4927 34.8573 62.479 34.703 62.4536 34.5468C62.4302 34.3905 62.3931 34.2401 62.3423 34.0956C62.2896 33.951 62.2231 33.8163 62.1431 33.6913C62.0649 33.5643 61.9712 33.454 61.8618 33.3602C61.7524 33.2665 61.6265 33.1932 61.4839 33.1405C61.3413 33.0858 61.1821 33.0585 61.0063 33.0585C60.8306 33.0585 60.6714 33.0858 60.5288 33.1405C60.3882 33.1932 60.2632 33.2665 60.1538 33.3602C60.0444 33.4559 59.9497 33.5673 59.8696 33.6942C59.7915 33.8192 59.7271 33.954 59.6763 34.0985C59.6235 34.243 59.5845 34.3934 59.5591 34.5497C59.5356 34.704 59.5229 34.8573 59.521 35.0096V35.496C59.5229 35.6483 59.5366 35.8016 59.562 35.9559C59.5874 36.1102 59.6265 36.2596 59.6792 36.4042C59.73 36.5487 59.7954 36.6844 59.8755 36.8114C59.9556 36.9364 60.0503 37.0458 60.1597 37.1395C60.269 37.2333 60.394 37.3075 60.5347 37.3622C60.6772 37.4149 60.8364 37.4413 61.0122 37.4413C61.188 37.4413 61.3462 37.4149 61.4868 37.3622C61.6294 37.3075 61.7554 37.2333 61.8647 37.1395C61.9741 37.0458 62.0679 36.9364 62.146 36.8114C62.2261 36.6864 62.2915 36.5516 62.3423 36.4071C62.3931 36.2626 62.4302 36.1132 62.4536 35.9589C62.479 35.8026 62.4927 35.6483 62.4946 35.496ZM61.9585 35.0038V35.496C61.9565 35.5975 61.9497 35.704 61.938 35.8153C61.9282 35.9266 61.9097 36.036 61.8823 36.1434C61.853 36.2528 61.8149 36.3573 61.7681 36.4569C61.7231 36.5546 61.6665 36.6405 61.5981 36.7147C61.5278 36.7909 61.4438 36.8514 61.3462 36.8964C61.2505 36.9413 61.1392 36.9637 61.0122 36.9637C60.8853 36.9637 60.7739 36.9413 60.6782 36.8964C60.5825 36.8514 60.4995 36.7909 60.4292 36.7147C60.3589 36.6405 60.3003 36.5536 60.2534 36.454C60.2065 36.3544 60.1685 36.2499 60.1392 36.1405C60.1099 36.0331 60.0884 35.9237 60.0747 35.8124C60.063 35.701 60.0562 35.5956 60.0542 35.496V35.0038C60.0562 34.9042 60.063 34.7997 60.0747 34.6903C60.0884 34.579 60.1099 34.4686 60.1392 34.3593C60.1665 34.2518 60.2036 34.1493 60.2505 34.0516C60.2974 33.952 60.356 33.8641 60.4263 33.788C60.4966 33.7137 60.5796 33.6542 60.6753 33.6093C60.771 33.5643 60.8813 33.5419 61.0063 33.5419C61.1333 33.5419 61.2446 33.5643 61.3403 33.6093C61.436 33.6522 61.519 33.7108 61.5894 33.785C61.6597 33.8612 61.7183 33.9491 61.7651 34.0487C61.812 34.1464 61.8501 34.2489 61.8794 34.3563C61.9067 34.4657 61.9263 34.576 61.938 34.6874C61.9497 34.7968 61.9565 34.9022 61.9585 35.0038ZM67.0562 36.3046C67.0562 36.4218 67.0308 36.5233 66.98 36.6093C66.9292 36.6932 66.8638 36.7626 66.7837 36.8173C66.7036 36.8739 66.6118 36.9159 66.5083 36.9432C66.4067 36.9686 66.3032 36.9813 66.1978 36.9813C66.0649 36.9813 65.9419 36.9637 65.8286 36.9286C65.7173 36.8915 65.6187 36.8368 65.5327 36.7645C65.4468 36.6942 65.3765 36.6083 65.3218 36.5067C65.2671 36.4032 65.231 36.285 65.2134 36.1522H64.6597C64.6655 36.3358 64.7056 36.5028 64.7798 36.6532C64.856 36.8016 64.9585 36.9315 65.0874 37.0428C65.2319 37.1718 65.4019 37.2704 65.5972 37.3387C65.7944 37.4071 65.9946 37.4413 66.1978 37.4413C66.3677 37.4413 66.5376 37.4178 66.7075 37.371C66.8774 37.3221 67.0298 37.2499 67.1646 37.1542C67.2993 37.0604 67.4087 36.9423 67.4927 36.7997C67.5786 36.6571 67.6216 36.4901 67.6216 36.2987C67.6216 36.1093 67.5815 35.9423 67.5015 35.7977C67.4233 35.6532 67.3198 35.5311 67.1909 35.4315C67.0601 35.3241 66.9155 35.2362 66.7573 35.1678C66.5991 35.0975 66.4409 35.038 66.2827 34.9891C66.187 34.9598 66.0845 34.9257 65.9751 34.8866C65.8677 34.8475 65.7681 34.7987 65.6763 34.7401C65.5825 34.6815 65.5054 34.6102 65.4448 34.5262C65.3843 34.4403 65.353 34.3358 65.3511 34.2128C65.3511 34.0995 65.3735 33.9999 65.4185 33.9139C65.4653 33.828 65.5278 33.7557 65.606 33.6971C65.6821 33.6385 65.769 33.5946 65.8667 33.5653C65.9663 33.536 66.0679 33.5214 66.1714 33.5214C66.3003 33.5214 66.4155 33.5419 66.5171 33.5829C66.6206 33.6219 66.7095 33.6776 66.7837 33.7499C66.8579 33.8221 66.9175 33.9091 66.9624 34.0106C67.0073 34.1102 67.0376 34.2216 67.0532 34.3446H67.6099C67.606 34.1493 67.564 33.9725 67.4839 33.8143C67.4038 33.6561 67.2974 33.5214 67.1646 33.41C67.0317 33.2987 66.8794 33.2128 66.7075 33.1522C66.5356 33.0897 66.3569 33.0585 66.1714 33.0585C66.0034 33.0585 65.8364 33.0848 65.6704 33.1376C65.5044 33.1884 65.356 33.2635 65.2251 33.3632C65.0942 33.4628 64.9878 33.5848 64.9058 33.7294C64.8257 33.8739 64.7856 34.038 64.7856 34.2216C64.7856 34.4052 64.8257 34.5653 64.9058 34.702C64.9878 34.8368 65.0933 34.954 65.2222 35.0536C65.3491 35.1512 65.4897 35.2352 65.644 35.3055C65.8003 35.3739 65.9536 35.4325 66.104 35.4813C66.2075 35.5145 66.3149 35.5516 66.4263 35.5927C66.5396 35.6337 66.6431 35.6844 66.7368 35.745C66.8306 35.8075 66.9067 35.8837 66.9653 35.9735C67.0259 36.0634 67.0562 36.1737 67.0562 36.3046ZM75.2534 37.3827H75.8101L76.3315 34.3505L76.3638 34.1688L76.3931 34.3475L76.9116 37.3827H77.4653L77.9839 33.1171H77.4712L77.1636 36.0526L77.146 36.2284L77.1138 36.0555L76.5952 33.1171H76.1235L75.6079 36.0526L75.5757 36.2284L75.5581 36.0585L75.2505 33.1171H74.7349L75.2534 37.3827ZM82.481 35.411V34.951H80.6997V33.58H82.7505V33.1171H80.1577V37.3827H82.7769V36.9227H80.6997V35.411H82.481ZM85.2319 37.3827H86.5972C86.7788 37.3807 86.9546 37.3524 87.1245 37.2977C87.2964 37.243 87.4478 37.1639 87.5786 37.0604C87.7095 36.9589 87.814 36.8319 87.8921 36.6796C87.9702 36.5272 88.0083 36.3514 88.0063 36.1522C88.0063 36.0253 87.9868 35.9071 87.9478 35.7977C87.9106 35.6884 87.8579 35.5897 87.7896 35.5018C87.7251 35.4218 87.6431 35.3485 87.5435 35.2821C87.4438 35.2157 87.3403 35.1698 87.2329 35.1444V35.1356C87.3364 35.0907 87.4243 35.0428 87.4966 34.9921C87.5708 34.9413 87.6382 34.8788 87.6987 34.8046C87.7573 34.7323 87.8032 34.6503 87.8364 34.5585C87.8716 34.4667 87.8901 34.3651 87.8921 34.2538C87.894 34.0546 87.856 33.8837 87.7778 33.7411C87.6997 33.5985 87.5952 33.4813 87.4644 33.3895C87.3335 33.2977 87.1841 33.2303 87.0161 33.1874C86.8481 33.1425 86.6763 33.119 86.5005 33.1171H85.2319V37.3827ZM85.7769 35.3876H86.6411C86.7563 35.3915 86.8638 35.411 86.9634 35.4462C87.063 35.4813 87.1499 35.5311 87.2241 35.5956C87.2983 35.662 87.356 35.7421 87.397 35.8358C87.4399 35.9296 87.4604 36.037 87.4585 36.1581C87.4585 36.2772 87.4351 36.3837 87.3882 36.4774C87.3433 36.5712 87.2817 36.6503 87.2036 36.7147C87.1255 36.7792 87.0356 36.83 86.9341 36.8671C86.8325 36.9022 86.7251 36.9208 86.6118 36.9227H85.7769V35.3876ZM85.7769 34.9364V33.58H86.5181C86.6235 33.5819 86.7261 33.5956 86.8257 33.621C86.9272 33.6464 87.0171 33.6854 87.0952 33.7382C87.1714 33.7928 87.2319 33.8622 87.2769 33.9462C87.3237 34.0302 87.3472 34.1317 87.3472 34.2509C87.3472 34.3622 87.3237 34.4598 87.2769 34.5438C87.23 34.6278 87.1685 34.6981 87.0923 34.7548C87.0161 34.8134 86.9292 34.8583 86.8315 34.8895C86.7339 34.9188 86.6343 34.9344 86.5327 34.9364H85.7769ZM91.4048 34.702L90.6401 35.66L91.0679 35.9706L91.689 34.9335L92.3159 35.9969L92.7437 35.6747L91.9937 34.7255L93.1128 34.4501L92.9546 33.9286L91.8911 34.368L91.9761 33.1171H91.4546L91.5278 34.3505L90.4585 33.9081L90.3003 34.4208L91.4048 34.702ZM96.1597 37.7489L97.938 33.1171H97.4546L95.6733 37.7489H96.1597Z" fill="#546472"/>
</svg>
