<svg width="446" height="336" viewBox="0 0 446 336" fill="none" xmlns="http://www.w3.org/2000/svg">
<path d="M293.855 121.443C293.855 121.443 325.931 129.898 332.632 101.678C339.333 73.4588 309.454 52.1569 288.801 56.2196C268.149 60.2824 284.078 112.22 242.224 126.055C242.224 126.055 210.587 152.298 190.484 145.051C170.491 137.694 190.813 80.8157 164.998 74.4471C139.183 68.0784 129.735 70.9333 129.735 70.9333" stroke="#E6E6E6" stroke-width="2.03" stroke-miterlimit="4.06" stroke-linecap="round" stroke-linejoin="round" stroke-dasharray="3.05 3.05"/>
<path d="M212.42 91.1313L190.712 197.878L261.442 212.249L283.149 105.502L212.42 91.1313Z" fill="#C1C1C1"/>
<path d="M213.734 84.3404L192.026 191.087L262.756 205.458L284.463 98.711L213.734 84.3404Z" fill="#E6E6E6"/>
<path d="M217.489 93.4415L201.821 170.489L262.001 182.716L277.668 105.668L217.489 93.4415Z" fill="white"/>
<path d="M222.376 142.261L219.707 155.389L251.357 161.819L254.027 148.691L222.376 142.261Z" fill="#00E3FF"/>
<path d="M246.069 287.796V234.431L299.457 229.6L309.014 287.796H246.069Z" fill="#68E1FD"/>
<path d="M236.072 207.2L249.364 225.867V234.212L296.161 230.039L293.745 207.31C293.745 207.31 299.457 180.188 292.317 162.51C289.131 154.275 287.703 145.6 288.142 136.816C288.472 128.69 276.937 126.933 274.74 134.729C273.861 138.024 273.202 144.722 273.312 151.529C273.312 154.384 272.763 157.239 271.555 159.765C268.698 166.024 263.975 178.431 266.831 185.349L261.338 212.361L236.072 207.2Z" fill="#F4A28C"/>
<path opacity="0.42" d="M230.141 192.596C233.174 192.596 235.633 190.138 235.633 187.106C235.633 184.074 233.174 181.616 230.141 181.616C227.107 181.616 224.648 184.074 224.648 187.106C224.648 190.138 227.107 192.596 230.141 192.596Z" fill="white"/>
<path opacity="0.09" d="M261.338 212.251L266.062 232.565L249.364 234.102V225.867L236.072 207.2L261.338 212.251Z" fill="black"/>
<path d="M182.245 237.067L187.298 225.427C187.298 225.427 196.196 220.925 206.742 216.533C217.288 212.031 222.121 204.894 220.693 199.404C219.265 193.914 208.939 187.216 208.939 187.216C208.939 187.216 229.371 157.788 230.14 151.859C230.909 145.929 225.856 143.733 219.155 147.796C212.454 151.969 199.382 167.561 199.382 167.561C199.382 167.561 177.082 157.02 168.513 164.376C159.945 171.733 157.198 195.231 145.005 215.435L182.245 237.067Z" fill="#F4A28C"/>
<path d="M141.599 213.349L187.737 233.443L170.82 289.333L105.897 287.796L141.599 213.349Z" fill="#68E1FD"/>
<path d="M229.272 112.855L225.196 133.317L255.148 139.279L259.225 118.817L229.272 112.855Z" fill="#48FF22"/>
<path opacity="0.72" d="M229.272 112.855L225.196 133.317L255.148 139.279L259.225 118.817L229.272 112.855Z" fill="white"/>
<path d="M229.262 112.769L241.345 130.118L259.142 118.698L229.262 112.769Z" fill="#48FF22"/>
<path d="M134.459 57.6471L93.9238 48.8627L122.046 80.3765L134.459 57.6471Z" fill="#48FF22"/>
<path d="M130.944 64.1255L131.603 75.6549L126 73.2392L130.944 64.1255Z" fill="#48FF22"/>
<path opacity="0.09" d="M93.9238 48.8627L130.944 64.1255L126.88 71.702L93.9238 48.8627Z" fill="black"/>
</svg>
